<?xml version="1.0" encoding="UTF-8" standalone="no"?>
<svg
   width="500"
   zoomAndPan="magnify"
   viewBox="0 0 375 374.999991"
   height="500"
   preserveAspectRatio="xMidYMid meet"
   version="1.0"
   id="svg75"
   sodipodi:docname="logo.svg"
   inkscape:version="1.4 (86a8ad7, 2024-10-11)"
   inkscape:export-filename="logo.svg"
   inkscape:export-xdpi="96"
   inkscape:export-ydpi="96"
   xmlns:inkscape="http://www.inkscape.org/namespaces/inkscape"
   xmlns:sodipodi="http://sodipodi.sourceforge.net/DTD/sodipodi-0.dtd"
   xmlns="http://www.w3.org/2000/svg"
   xmlns:svg="http://www.w3.org/2000/svg">
  <sodipodi:namedview
     id="namedview75"
     pagecolor="#ffffff"
     bordercolor="#000000"
     borderopacity="0.25"
     inkscape:showpageshadow="2"
     inkscape:pageopacity="0.0"
     inkscape:pagecheckerboard="0"
     inkscape:deskcolor="#d1d1d1"
     inkscape:zoom="3.3007745"
     inkscape:cx="274.17808"
     inkscape:cy="361.5818"
     inkscape:window-width="2560"
     inkscape:window-height="1369"
     inkscape:window-x="1912"
     inkscape:window-y="-8"
     inkscape:window-maximized="1"
     inkscape:current-layer="svg75" />
  <defs
     id="defs15">
    <g
       id="g1" />
    <clipPath
       id="f34bba604c">
      <path
         d="M 72.707031 46.816406 L 180.972656 46.816406 L 180.972656 155.082031 L 72.707031 155.082031 Z M 72.707031 46.816406 "
         clip-rule="nonzero"
         id="path1" />
    </clipPath>
    <clipPath
       id="c62f24525f">
      <path
         d="M 192.925781 164.699219 L 301.191406 164.699219 L 301.191406 272.964844 L 192.925781 272.964844 Z M 192.925781 164.699219 "
         clip-rule="nonzero"
         id="path2" />
    </clipPath>
    <clipPath
       id="1378aec015">
      <path
         d="M 86.824219 60.933594 L 166.941406 60.933594 L 166.941406 141 L 86.824219 141 Z M 86.824219 60.933594 "
         clip-rule="nonzero"
         id="path3" />
    </clipPath>
    <clipPath
       id="28c6b73046">
      <path
         d="M 212.523438 208 L 281.8125 208 L 281.8125 229 L 212.523438 229 Z M 212.523438 208 "
         clip-rule="nonzero"
         id="path4" />
    </clipPath>
    <clipPath
       id="08a680ed57">
      <path
         d="M 235 179.1875 L 260 179.1875 L 260 204 L 235 204 Z M 235 179.1875 "
         clip-rule="nonzero"
         id="path5" />
    </clipPath>
    <clipPath
       id="7715add496">
      <path
         d="M 235 234 L 260 234 L 260 258.582031 L 235 258.582031 Z M 235 234 "
         clip-rule="nonzero"
         id="path6" />
    </clipPath>
    <clipPath
       id="19f9bf8690">
      <path
         d="M 212.523438 208 L 223 208 L 223 229 L 212.523438 229 Z M 212.523438 208 "
         clip-rule="nonzero"
         id="path7" />
    </clipPath>
    <clipPath
       id="9a9db16eb1">
      <path
         d="M 235 179.1875 L 251 179.1875 L 251 204 L 235 204 Z M 235 179.1875 "
         clip-rule="nonzero"
         id="path8" />
    </clipPath>
    <clipPath
       id="aadbcd71e5">
      <path
         d="M 235 234 L 251 234 L 251 258.582031 L 235 258.582031 Z M 235 234 "
         clip-rule="nonzero"
         id="path9" />
    </clipPath>
    <clipPath
       id="89a21ae1f2">
      <path
         d="M 82 237 L 172 237 L 172 258.121094 L 82 258.121094 Z M 82 237 "
         clip-rule="nonzero"
         id="path10" />
    </clipPath>
    <clipPath
       id="a0545b48b7">
      <path
         d="M 72.707031 176.5625 L 180.972656 176.5625 L 180.972656 236 L 72.707031 236 Z M 72.707031 176.5625 "
         clip-rule="nonzero"
         id="path11" />
    </clipPath>
    <clipPath
       id="9da4452978">
      <path
         d="M 192.925781 102 L 230 102 L 230 126 L 192.925781 126 Z M 192.925781 102 "
         clip-rule="nonzero"
         id="path12" />
    </clipPath>
    <clipPath
       id="664b0fc3aa">
      <path
         d="M 192.925781 75 L 232 75 L 232 99 L 192.925781 99 Z M 192.925781 75 "
         clip-rule="nonzero"
         id="path13" />
    </clipPath>
    <clipPath
       id="346fc254c4">
      <path
         d="M 235 67 L 302.636719 67 L 302.636719 153 L 235 153 Z M 235 67 "
         clip-rule="nonzero"
         id="path14" />
    </clipPath>
    <clipPath
       id="6bc7cb2655">
      <path
         d="M 192.925781 49.113281 L 269 49.113281 L 269 72 L 192.925781 72 Z M 192.925781 49.113281 "
         clip-rule="nonzero"
         id="path15" />
    </clipPath>
  </defs>
  <path
     d="M 72.707519,46.816406 V 155.08154 H 180.97265 V 46.816406 Z m 31.183591,14.148925 23.61621,25.97168 25.96875,-23.620606 13.36817,14.695313 -25.96582,23.625002 23.61767,25.96435 -14.69971,13.36817 -23.61621,-25.96143 -25.96875,23.61328 L 86.840331,123.92578 112.80908,100.30517 89.187011,74.339355 Z"
     style="fill:#4caf50"
     id="path75" />
  <path
     d="M 192.92578,164.69971 V 272.96484 H 301.19091 V 164.69971 Z m 54.1333,14.49169 c 0.78516,0 1.56543,0.0776 2.33496,0.22998 0.77344,0.15235 1.52344,0.3794 2.25,0.68409 0.72656,0.30078 1.41894,0.66845 2.07129,1.10595 0.65625,0.4375 1.26074,0.93262 1.81933,1.49121 0.55469,0.55469 1.05079,1.16016 1.48829,1.81641 0.4375,0.65234 0.80957,1.34473 1.11035,2.07129 0.30078,0.73047 0.52734,1.47656 0.67969,2.25 0.15625,0.77344 0.22998,1.55029 0.22998,2.33936 0,0.78515 -0.0737,1.56689 -0.22998,2.33642 -0.15235,0.77344 -0.37891,1.52344 -0.67969,2.25 -0.30078,0.72656 -0.67285,1.41797 -1.11035,2.07422 -0.4375,0.65234 -0.9336,1.25781 -1.48829,1.81641 -0.55859,0.55468 -1.16308,1.05078 -1.81933,1.48828 -0.65235,0.4375 -1.34473,0.8081 -2.07129,1.10888 -0.72656,0.30079 -1.47656,0.52784 -2.25,0.68409 -0.76953,0.15234 -1.5498,0.22998 -2.33496,0.22998 -0.78906,0 -1.57129,-0.0776 -2.34082,-0.22998 -0.77344,-0.15625 -1.52344,-0.3833 -2.25,-0.68409 -0.72656,-0.30078 -1.41748,-0.67138 -2.06983,-1.10888 -0.65625,-0.4375 -1.26171,-0.9336 -1.8164,-1.48828 -0.55859,-0.5586 -1.05518,-1.16407 -1.49268,-1.81641 -0.4375,-0.65625 -0.8081,-1.34766 -1.10888,-2.07422 -0.30079,-0.72656 -0.52735,-1.47656 -0.67969,-2.25 -0.15625,-0.76953 -0.22998,-1.55127 -0.22998,-2.33642 0,-0.78907 0.0737,-1.56592 0.22998,-2.33936 0.15234,-0.77344 0.3789,-1.51953 0.67969,-2.25 0.30078,-0.72656 0.67138,-1.41895 1.10888,-2.07129 0.4375,-0.65625 0.93409,-1.26172 1.49268,-1.81641 0.55469,-0.55859 1.16015,-1.05371 1.8164,-1.49121 0.65235,-0.4375 1.34327,-0.80517 2.06983,-1.10595 0.72656,-0.30469 1.47656,-0.53174 2.25,-0.68409 0.76953,-0.15234 1.55176,-0.22998 2.34082,-0.22998 z m -30.96533,29.72315 h 61.92627 c 0.47265,0 0.9292,0.0928 1.3667,0.27246 0.4375,0.17969 0.81982,0.4375 1.15576,0.77344 0.33593,0.33593 0.59375,0.72265 0.77343,1.16015 0.1836,0.4375 0.27393,0.89551 0.27393,1.36817 v 12.68701 c 0,0.47266 -0.0903,0.9292 -0.27393,1.3667 -0.17968,0.4375 -0.4375,0.82129 -0.77343,1.15722 -0.33594,0.33594 -0.71826,0.59375 -1.15576,0.77344 -0.4375,0.1836 -0.89405,0.27246 -1.3667,0.27246 h -61.92627 c -0.47266,0 -0.92529,-0.0889 -1.3667,-0.27246 -0.4375,-0.17969 -0.82129,-0.4375 -1.15723,-0.77344 -0.33594,-0.33593 -0.59375,-0.71972 -0.77344,-1.15722 -0.18359,-0.4375 -0.27246,-0.89404 -0.27246,-1.3667 v -12.68701 c 0,-0.47266 0.0889,-0.93067 0.27246,-1.36817 0.17969,-0.4375 0.4375,-0.82422 0.77344,-1.16015 0.33594,-0.33594 0.71973,-0.59375 1.15723,-0.77344 0.44141,-0.17969 0.89404,-0.27246 1.3667,-0.27246 z m 30.96533,25.58203 c 0.78516,0 1.56543,0.0737 2.33496,0.22998 0.77344,0.15234 1.52344,0.37891 2.25,0.67969 0.72656,0.30078 1.41894,0.67138 2.07129,1.10888 0.65625,0.4375 1.26074,0.93409 1.81933,1.49268 0.55469,0.55469 1.05079,1.16016 1.48829,1.81641 0.4375,0.65234 0.80957,1.34326 1.11035,2.06982 0.30078,0.72656 0.52734,1.47656 0.67969,2.25 0.15625,0.76953 0.22998,1.55176 0.22998,2.34082 0,0.78516 -0.0737,1.56543 -0.22998,2.33496 -0.15235,0.77344 -0.37891,1.52344 -0.67969,2.25 -0.30078,0.72656 -0.67285,1.41895 -1.11035,2.07129 -0.4375,0.65625 -0.9336,1.26074 -1.48829,1.81934 -0.55859,0.55468 -1.16308,1.05078 -1.81933,1.48828 -0.65235,0.4375 -1.34473,0.80957 -2.07129,1.11035 -0.72656,0.30078 -1.47656,0.52734 -2.25,0.67969 -0.76953,0.15625 -1.5498,0.22998 -2.33496,0.22998 -0.78906,0 -1.57129,-0.0737 -2.34082,-0.22998 -0.77344,-0.15235 -1.52344,-0.37891 -2.25,-0.67969 -0.72656,-0.30078 -1.41748,-0.67285 -2.06983,-1.11035 -0.65625,-0.4375 -1.26171,-0.9336 -1.8164,-1.48828 -0.55859,-0.5586 -1.05518,-1.16309 -1.49268,-1.81934 -0.4375,-0.65234 -0.8081,-1.34473 -1.10888,-2.07129 -0.30079,-0.72656 -0.52735,-1.47656 -0.67969,-2.25 -0.15625,-0.76953 -0.22998,-1.5498 -0.22998,-2.33496 0,-0.78906 0.0737,-1.57129 0.22998,-2.34082 0.15234,-0.77344 0.3789,-1.52344 0.67969,-2.25 0.30078,-0.72656 0.67138,-1.41748 1.10888,-2.06982 0.4375,-0.65625 0.93409,-1.26172 1.49268,-1.81641 0.55469,-0.55859 1.16015,-1.05518 1.8164,-1.49268 0.65235,-0.4375 1.34327,-0.8081 2.06983,-1.10888 0.72656,-0.30078 1.47656,-0.52735 2.25,-0.67969 0.76953,-0.15625 1.55176,-0.22998 2.34082,-0.22998 z"
     style="fill:#4caf50"
     id="path79" />
  <g
     clip-path="url(#89a21ae1f2)"
     id="g25">
    <path
       fill="#4caf50"
       d="M 170.039062 258.363281 L 126.839844 251.863281 L 83.640625 258.363281 C 82.890625 258.476562 82.390625 257.539062 82.84375 256.871094 L 85.128906 253.519531 C 85.257812 253.332031 85.449219 253.199219 85.660156 253.160156 L 120.90625 246.152344 L 120.90625 237.511719 L 123.804688 237.511719 L 123.804688 241.207031 C 123.804688 243.054688 125.164062 244.550781 126.839844 244.550781 C 128.511719 244.550781 129.875 243.054688 129.875 241.207031 L 129.875 237.511719 L 132.769531 237.511719 L 132.769531 246.152344 L 168.019531 253.160156 C 168.234375 253.199219 168.421875 253.332031 168.546875 253.519531 L 170.835938 256.871094 C 171.285156 257.539062 170.785156 258.476562 170.039062 258.363281 "
       fill-opacity="1"
       fill-rule="nonzero"
       id="path25" />
  </g>
  <g
     clip-path="url(#a0545b48b7)"
     id="g26">
    <path
       fill="#4caf50"
       d="M 177.621094 228.9375 L 76.058594 228.9375 L 76.058594 180.238281 L 177.621094 180.238281 Z M 131.851562 233.199219 C 131.6875 233.382812 131.453125 233.5 131.195312 233.5 L 122.488281 233.5 C 121.972656 233.5 121.5625 233.042969 121.5625 232.480469 C 121.5625 232.195312 121.664062 231.945312 121.832031 231.757812 C 122 231.574219 122.226562 231.457031 122.488281 231.457031 L 131.195312 231.457031 C 131.707031 231.457031 132.125 231.914062 132.125 232.480469 C 132.125 232.761719 132.019531 233.011719 131.851562 233.199219 Z M 178.292969 176.5625 L 75.390625 176.5625 C 73.921875 176.5625 72.722656 177.882812 72.722656 179.496094 L 72.722656 232.808594 C 72.722656 234.425781 73.921875 235.742188 75.390625 235.742188 L 178.292969 235.742188 C 179.757812 235.742188 180.957031 234.425781 180.957031 232.808594 L 180.957031 179.496094 C 180.957031 177.882812 179.757812 176.5625 178.292969 176.5625 "
       fill-opacity="1"
       fill-rule="nonzero"
       id="path26" />
  </g>
  <g
     clip-path="url(#9da4452978)"
     id="g27">
    <path
       fill="#4caf50"
       d="M 229.664062 125.078125 L 229.664062 119.621094 C 229.664062 119.5625 229.664062 119.5 229.667969 119.4375 C 229.664062 119.363281 229.664062 119.289062 229.664062 119.21875 L 229.664062 102.390625 L 196.585938 102.390625 C 194.566406 102.390625 192.925781 104.03125 192.925781 106.050781 L 192.925781 124.34375 C 192.925781 124.75 193.253906 125.078125 193.660156 125.078125 Z M 214.367188 109.953125 C 216.433594 109.953125 218.109375 111.628906 218.109375 113.699219 C 218.109375 115.765625 216.433594 117.441406 214.367188 117.441406 C 212.296875 117.441406 210.621094 115.765625 210.621094 113.699219 C 210.621094 111.628906 212.296875 109.953125 214.367188 109.953125 Z M 203.5 109.953125 C 205.566406 109.953125 207.242188 111.628906 207.242188 113.699219 C 207.242188 115.765625 205.566406 117.441406 203.5 117.441406 C 201.429688 117.441406 199.753906 115.765625 199.753906 113.699219 C 199.753906 111.628906 201.429688 109.953125 203.5 109.953125 Z M 203.5 109.953125 "
       fill-opacity="1"
       fill-rule="nonzero"
       id="path27" />
  </g>
  <g
     clip-path="url(#664b0fc3aa)"
     id="g28">
    <path
       fill="#4caf50"
       d="M 196.585938 75.753906 C 194.566406 75.753906 192.925781 77.390625 192.925781 79.414062 L 192.925781 97.707031 C 192.925781 98.113281 193.253906 98.441406 193.660156 98.441406 L 229.664062 98.441406 L 229.664062 82.746094 C 229.664062 82.6875 229.664062 82.625 229.667969 82.5625 C 229.664062 82.488281 229.664062 82.414062 229.664062 82.34375 C 229.664062 80.0625 230.28125 77.824219 231.449219 75.753906 Z M 203.5 90.804688 C 201.429688 90.804688 199.753906 89.128906 199.753906 87.0625 C 199.753906 84.992188 201.429688 83.316406 203.5 83.316406 C 205.566406 83.316406 207.242188 84.992188 207.242188 87.0625 C 207.242188 89.128906 205.566406 90.804688 203.5 90.804688 Z M 214.367188 90.804688 C 212.296875 90.804688 210.621094 89.128906 210.621094 87.0625 C 210.621094 84.992188 212.296875 83.316406 214.367188 83.316406 C 216.433594 83.316406 218.109375 84.992188 218.109375 87.0625 C 218.109375 89.128906 216.433594 90.804688 214.367188 90.804688 Z M 214.367188 90.804688 "
       fill-opacity="1"
       fill-rule="nonzero"
       id="path28" />
  </g>
  <g
     clip-path="url(#346fc254c4)"
     id="g29">
    <path
       fill="#4caf50"
       d="M 238.589844 144.898438 C 240.394531 146.527344 242.902344 147.960938 246.050781 149.160156 C 252.164062 151.492188 260.230469 152.773438 268.769531 152.773438 C 277.308594 152.773438 285.375 151.492188 291.488281 149.160156 C 294.636719 147.960938 297.144531 146.527344 298.949219 144.898438 C 301.707031 142.410156 302.285156 139.917969 302.285156 138.261719 L 302.285156 119.621094 C 302.285156 119.570312 302.285156 119.515625 302.28125 119.464844 C 302.285156 119.382812 302.285156 119.296875 302.285156 119.21875 L 302.285156 82.746094 C 302.285156 82.695312 302.285156 82.640625 302.28125 82.589844 C 302.285156 82.503906 302.285156 82.421875 302.285156 82.34375 C 302.285156 80.6875 301.707031 78.195312 298.949219 75.707031 C 297.144531 74.078125 294.636719 72.644531 291.488281 71.445312 C 285.378906 69.113281 277.308594 67.832031 268.769531 67.832031 C 260.230469 67.832031 252.164062 69.113281 246.050781 71.445312 C 242.902344 72.648438 240.394531 74.082031 238.589844 75.707031 C 235.832031 78.195312 235.253906 80.6875 235.253906 82.34375 C 235.253906 82.421875 235.253906 82.503906 235.257812 82.589844 C 235.253906 82.640625 235.253906 82.695312 235.253906 82.746094 L 235.253906 119.21875 C 235.253906 119.296875 235.253906 119.382812 235.257812 119.464844 C 235.253906 119.515625 235.253906 119.570312 235.253906 119.621094 L 235.253906 138.261719 C 235.253906 139.917969 235.832031 142.410156 238.589844 144.898438 Z M 248.039062 76.667969 C 253.535156 74.574219 260.894531 73.417969 268.769531 73.417969 C 276.644531 73.417969 284.007812 74.574219 289.5 76.667969 C 293.871094 78.335938 296.699219 80.5625 296.699219 82.34375 C 296.699219 84.125 293.875 86.351562 289.5 88.019531 C 284.007812 90.117188 276.644531 91.269531 268.769531 91.269531 C 260.894531 91.269531 253.535156 90.117188 248.039062 88.019531 C 243.667969 86.351562 240.839844 84.125 240.839844 82.34375 C 240.839844 80.5625 243.667969 78.335938 248.039062 76.667969 Z M 240.839844 100.578125 L 240.839844 90.679688 C 242.308594 91.621094 244.050781 92.476562 246.050781 93.242188 C 252.164062 95.574219 260.230469 96.855469 268.769531 96.855469 C 277.308594 96.855469 285.375 95.574219 291.488281 93.242188 C 293.488281 92.476562 295.230469 91.621094 296.699219 90.679688 L 296.699219 101.386719 C 296.699219 103.167969 293.871094 105.394531 289.5 107.0625 C 284.003906 109.160156 276.644531 110.3125 268.769531 110.3125 C 260.894531 110.3125 253.535156 109.15625 248.039062 107.0625 C 243.667969 105.394531 240.839844 103.167969 240.839844 101.386719 Z M 240.839844 109.722656 C 242.308594 110.664062 244.050781 111.519531 246.050781 112.285156 C 252.164062 114.617188 260.230469 115.898438 268.769531 115.898438 C 277.308594 115.898438 285.375 114.617188 291.488281 112.285156 C 293.488281 111.519531 295.230469 110.664062 296.699219 109.722656 L 296.699219 119.21875 C 296.699219 121 293.871094 123.226562 289.5 124.894531 C 284.003906 126.992188 276.644531 128.144531 268.769531 128.144531 C 260.894531 128.144531 253.535156 126.988281 248.039062 124.894531 C 243.667969 123.226562 240.839844 121 240.839844 119.21875 Z M 240.839844 127.554688 C 242.308594 128.496094 244.050781 129.351562 246.050781 130.117188 C 252.164062 132.449219 260.230469 133.730469 268.769531 133.730469 C 277.308594 133.730469 285.375 132.449219 291.488281 130.117188 C 293.488281 129.351562 295.230469 128.496094 296.699219 127.554688 L 296.699219 138.261719 C 296.699219 140.042969 293.871094 142.269531 289.5 143.9375 C 284.003906 146.03125 276.644531 147.1875 268.769531 147.1875 C 260.894531 147.1875 253.535156 146.03125 248.039062 143.9375 C 243.667969 142.269531 240.839844 140.042969 240.839844 138.261719 Z M 240.839844 127.554688 "
       fill-opacity="1"
       fill-rule="nonzero"
       id="path29" />
  </g>
  <g
     clip-path="url(#6bc7cb2655)"
     id="g30">
    <path
       fill="#4caf50"
       d="M 237.050781 67.839844 C 236.648438 67.839844 236.316406 67.507812 236.316406 67.105469 L 236.316406 55.0625 C 236.316406 54.65625 236.648438 54.328125 237.050781 54.328125 L 263.777344 54.328125 C 264.183594 54.328125 264.511719 54.65625 264.511719 55.0625 L 264.511719 62.34375 C 265.917969 62.277344 267.339844 62.242188 268.769531 62.242188 L 268.769531 52.773438 C 268.769531 50.753906 267.132812 49.117188 265.109375 49.117188 L 196.585938 49.117188 C 194.566406 49.117188 192.925781 50.753906 192.925781 52.773438 L 192.925781 71.070312 C 192.925781 71.476562 193.253906 71.804688 193.660156 71.804688 L 234.582031 71.804688 C 234.667969 71.722656 234.757812 71.640625 234.847656 71.558594 C 236.371094 70.183594 238.230469 68.941406 240.402344 67.839844 Z M 203.5 64.167969 C 201.429688 64.167969 199.753906 62.492188 199.753906 60.421875 C 199.753906 58.355469 201.429688 56.679688 203.5 56.679688 C 205.566406 56.679688 207.242188 58.355469 207.242188 60.421875 C 207.242188 62.492188 205.566406 64.167969 203.5 64.167969 Z M 214.367188 64.167969 C 212.296875 64.167969 210.621094 62.492188 210.621094 60.421875 C 210.621094 58.355469 212.296875 56.679688 214.367188 56.679688 C 216.433594 56.679688 218.109375 58.355469 218.109375 60.421875 C 218.109375 62.492188 216.433594 64.167969 214.367188 64.167969 Z M 214.367188 64.167969 "
       fill-opacity="1"
       fill-rule="nonzero"
       id="path30" />
  </g>
  <g
     fill="#4caf50"
     fill-opacity="1"
     id="g33">
    <g
       transform="translate(37.517099, 336.427302)"
       id="g32">
      <g
         id="g31">
        <path
           d="M 21.09375 -5.703125 C 21.90625 -5.703125 22.3125 -5.1875 22.3125 -4.15625 C 22.3125 -3.125 22.296875 -2.351562 22.265625 -1.84375 C 22.128906 -0.675781 21.613281 -0.015625 20.71875 0.140625 C 17.84375 0.566406 15.710938 0.78125 14.328125 0.78125 C 9.515625 0.78125 6.203125 -0.570312 4.390625 -3.28125 C 2.585938 -6 1.6875 -10.890625 1.6875 -17.953125 C 1.6875 -23.117188 2.082031 -27.0625 2.875 -29.78125 C 3.664062 -32.507812 4.941406 -34.421875 6.703125 -35.515625 C 8.460938 -36.609375 11.09375 -37.15625 14.59375 -37.15625 C 18.09375 -37.15625 20.648438 -36.609375 22.265625 -35.515625 C 22.585938 -35.296875 22.75 -35.023438 22.75 -34.703125 C 22.75 -34.378906 22.59375 -33.769531 22.28125 -32.875 C 21.976562 -31.988281 21.6875 -31.359375 21.40625 -30.984375 C 21.132812 -30.617188 20.851562 -30.4375 20.5625 -30.4375 C 20.269531 -30.4375 20.046875 -30.453125 19.890625 -30.484375 C 17.472656 -30.972656 15.382812 -31.21875 13.625 -31.21875 C 11.863281 -31.21875 10.71875 -30.25 10.1875 -28.3125 C 9.65625 -26.375 9.390625 -23.234375 9.390625 -18.890625 C 9.390625 -14.554688 9.5 -11.535156 9.71875 -9.828125 C 9.945312 -8.117188 10.367188 -6.921875 10.984375 -6.234375 C 11.597656 -5.554688 12.570312 -5.21875 13.90625 -5.21875 C 15.25 -5.21875 16.765625 -5.296875 18.453125 -5.453125 C 20.148438 -5.617188 21.03125 -5.703125 21.09375 -5.703125 Z M 21.09375 -5.703125 "
           id="path31" />
      </g>
    </g>
  </g>
  <g
     fill="#4caf50"
     fill-opacity="1"
     id="g36">
    <g
       transform="translate(61.612969, 336.427302)"
       id="g35">
      <g
         id="g34">
        <path
           d="M 13.265625 -1.5 C 11.585938 0.0195312 10.09375 0.78125 8.78125 0.78125 C 7.476562 0.78125 6.421875 0.6875 5.609375 0.5 C 4.804688 0.320312 4.082031 -0.0625 3.4375 -0.65625 C 2.789062 -1.25 2.335938 -2.109375 2.078125 -3.234375 C 1.816406 -4.367188 1.6875 -5.875 1.6875 -7.75 C 1.6875 -10.351562 2.960938 -12.140625 5.515625 -13.109375 L 12.4375 -14.90625 C 12.40625 -17 12.195312 -18.351562 11.8125 -18.96875 C 11.425781 -19.582031 10.585938 -19.890625 9.296875 -19.890625 C 8.003906 -19.890625 6.890625 -19.679688 5.953125 -19.265625 L 4.265625 -18.578125 L 4.203125 -18.578125 C 3.921875 -18.421875 3.664062 -18.550781 3.4375 -18.96875 C 2.851562 -20.195312 2.5625 -21.15625 2.5625 -21.84375 C 2.5625 -22.539062 2.617188 -22.925781 2.734375 -23 C 2.847656 -23.082031 2.90625 -23.140625 2.90625 -23.171875 C 4.519531 -24.242188 6.609375 -24.78125 9.171875 -24.78125 C 11.734375 -24.78125 13.707031 -24.441406 15.09375 -23.765625 C 16.476562 -23.085938 17.484375 -21.851562 18.109375 -20.0625 C 18.742188 -18.269531 19.0625 -15.613281 19.0625 -12.09375 L 18.96875 0 C 18.96875 0.195312 18.9375 0.328125 18.875 0.390625 C 18.738281 0.648438 18.125 0.78125 17.03125 0.78125 C 15.03125 0.78125 14.03125 0.519531 14.03125 0 Z M 7.0625 -7.640625 C 7.0625 -5.316406 7.738281 -4.09375 9.09375 -3.96875 C 10.03125 -3.96875 10.707031 -4.128906 11.125 -4.453125 C 12.03125 -5.066406 12.484375 -7.359375 12.484375 -11.328125 C 10.804688 -11.097656 9.484375 -10.632812 8.515625 -9.9375 C 7.546875 -9.25 7.0625 -8.484375 7.0625 -7.640625 Z M 7.0625 -7.640625 "
           id="path33" />
      </g>
    </g>
  </g>
  <g
     fill="#4caf50"
     fill-opacity="1"
     id="g39">
    <g
       transform="translate(82.660568, 336.427302)"
       id="g38">
      <g
         id="g37">
        <path
           d="M 8.703125 0 C 8.703125 0.195312 8.671875 0.328125 8.609375 0.390625 C 8.484375 0.648438 7.882812 0.78125 6.8125 0.78125 C 5.75 0.78125 4.707031 0.695312 3.6875 0.53125 C 2.675781 0.375 2.171875 0.195312 2.171875 0 L 2.171875 -36.390625 C 2.171875 -36.898438 2.734375 -37.15625 3.859375 -37.15625 C 4.992188 -37.15625 5.929688 -37.082031 6.671875 -36.9375 C 7.421875 -36.800781 7.8125 -36.617188 7.84375 -36.390625 L 8.703125 -20.859375 Z M 8.703125 0 "
           id="path36" />
      </g>
    </g>
  </g>
  <g
     fill="#4caf50"
     fill-opacity="1"
     id="g42">
    <g
       transform="translate(93.402107, 336.427302)"
       id="g41">
      <g
         id="g40">
        <path
           d="M 17.953125 -23.125 C 18.179688 -23 18.296875 -22.703125 18.296875 -22.234375 C 18.296875 -21.765625 18.179688 -21.144531 17.953125 -20.375 C 17.535156 -18.957031 17.082031 -18.359375 16.59375 -18.578125 L 16.546875 -18.578125 L 14.859375 -19.265625 C 13.921875 -19.679688 12.78125 -19.890625 11.4375 -19.890625 C 10.101562 -19.890625 9.25 -19.335938 8.875 -18.234375 C 8.507812 -17.140625 8.328125 -15.023438 8.328125 -11.890625 C 8.328125 -8.765625 8.554688 -6.660156 9.015625 -5.578125 C 9.484375 -4.503906 10.378906 -3.96875 11.703125 -3.96875 C 13.609375 -3.96875 15.09375 -4.078125 16.15625 -4.296875 C 17.226562 -4.523438 17.78125 -4.640625 17.8125 -4.640625 C 18.03125 -4.710938 18.210938 -4.585938 18.359375 -4.265625 C 18.503906 -3.941406 18.578125 -3.179688 18.578125 -1.984375 C 18.578125 -0.785156 18.320312 -0.125 17.8125 0 C 15.8125 0.519531 13.84375 0.78125 11.90625 0.78125 C 8 0.78125 5.328125 -0.144531 3.890625 -2 C 2.453125 -3.863281 1.734375 -7.226562 1.734375 -12.09375 C 1.734375 -15.613281 2.046875 -18.269531 2.671875 -20.0625 C 3.304688 -21.851562 4.316406 -23.085938 5.703125 -23.765625 C 7.097656 -24.441406 9.117188 -24.78125 11.765625 -24.78125 C 14.410156 -24.78125 16.457031 -24.226562 17.90625 -23.125 Z M 17.953125 -23.125 "
           id="path39" />
      </g>
    </g>
  </g>
  <g
     fill="#4caf50"
     fill-opacity="1"
     id="g45">
    <g
       transform="translate(113.288461, 336.427302)"
       id="g44">
      <g
         id="g43">
        <path
           d="M 8.953125 0.78125 C 6.566406 0.78125 4.816406 0.0390625 3.703125 -1.4375 C 2.585938 -2.925781 2.03125 -5.546875 2.03125 -9.296875 L 2.03125 -24 C 2.03125 -24.519531 2.617188 -24.78125 3.796875 -24.78125 C 4.972656 -24.78125 6.125 -24.695312 7.25 -24.53125 C 8.382812 -24.375 8.953125 -24.195312 8.953125 -24 L 9 -9.296875 C 9 -5.679688 9.257812 -3.875 9.78125 -3.875 C 10.9375 -3.875 12.484375 -4.453125 14.421875 -5.609375 L 14.421875 -24 C 14.421875 -24.519531 15.007812 -24.78125 16.1875 -24.78125 C 17.363281 -24.78125 18.523438 -24.695312 19.671875 -24.53125 C 20.816406 -24.375 21.390625 -24.195312 21.390625 -24 L 21.390625 0 C 21.390625 0.195312 21.359375 0.328125 21.296875 0.390625 C 21.160156 0.648438 20.328125 0.78125 18.796875 0.78125 C 17.265625 0.78125 16.320312 0.519531 15.96875 0 L 14.953125 -1.5 C 12.691406 0.0195312 10.691406 0.78125 8.953125 0.78125 Z M 8.953125 0.78125 "
           id="path42" />
      </g>
    </g>
  </g>
  <g
     fill="#4caf50"
     fill-opacity="1"
     id="g48">
    <g
       transform="translate(136.852096, 336.427302)"
       id="g47">
      <g
         id="g46">
        <path
           d="M 8.703125 0 C 8.703125 0.195312 8.671875 0.328125 8.609375 0.390625 C 8.484375 0.648438 7.882812 0.78125 6.8125 0.78125 C 5.75 0.78125 4.707031 0.695312 3.6875 0.53125 C 2.675781 0.375 2.171875 0.195312 2.171875 0 L 2.171875 -36.390625 C 2.171875 -36.898438 2.734375 -37.15625 3.859375 -37.15625 C 4.992188 -37.15625 5.929688 -37.082031 6.671875 -36.9375 C 7.421875 -36.800781 7.8125 -36.617188 7.84375 -36.390625 L 8.703125 -20.859375 Z M 8.703125 0 "
           id="path45" />
      </g>
    </g>
  </g>
  <g
     fill="#4caf50"
     fill-opacity="1"
     id="g51">
    <g
       transform="translate(147.593635, 336.427302)"
       id="g50">
      <g
         id="g49">
        <path
           d="M 13.265625 -1.5 C 11.585938 0.0195312 10.09375 0.78125 8.78125 0.78125 C 7.476562 0.78125 6.421875 0.6875 5.609375 0.5 C 4.804688 0.320312 4.082031 -0.0625 3.4375 -0.65625 C 2.789062 -1.25 2.335938 -2.109375 2.078125 -3.234375 C 1.816406 -4.367188 1.6875 -5.875 1.6875 -7.75 C 1.6875 -10.351562 2.960938 -12.140625 5.515625 -13.109375 L 12.4375 -14.90625 C 12.40625 -17 12.195312 -18.351562 11.8125 -18.96875 C 11.425781 -19.582031 10.585938 -19.890625 9.296875 -19.890625 C 8.003906 -19.890625 6.890625 -19.679688 5.953125 -19.265625 L 4.265625 -18.578125 L 4.203125 -18.578125 C 3.921875 -18.421875 3.664062 -18.550781 3.4375 -18.96875 C 2.851562 -20.195312 2.5625 -21.15625 2.5625 -21.84375 C 2.5625 -22.539062 2.617188 -22.925781 2.734375 -23 C 2.847656 -23.082031 2.90625 -23.140625 2.90625 -23.171875 C 4.519531 -24.242188 6.609375 -24.78125 9.171875 -24.78125 C 11.734375 -24.78125 13.707031 -24.441406 15.09375 -23.765625 C 16.476562 -23.085938 17.484375 -21.851562 18.109375 -20.0625 C 18.742188 -18.269531 19.0625 -15.613281 19.0625 -12.09375 L 18.96875 0 C 18.96875 0.195312 18.9375 0.328125 18.875 0.390625 C 18.738281 0.648438 18.125 0.78125 17.03125 0.78125 C 15.03125 0.78125 14.03125 0.519531 14.03125 0 Z M 7.0625 -7.640625 C 7.0625 -5.316406 7.738281 -4.09375 9.09375 -3.96875 C 10.03125 -3.96875 10.707031 -4.128906 11.125 -4.453125 C 12.03125 -5.066406 12.484375 -7.359375 12.484375 -11.328125 C 10.804688 -11.097656 9.484375 -10.632812 8.515625 -9.9375 C 7.546875 -9.25 7.0625 -8.484375 7.0625 -7.640625 Z M 7.0625 -7.640625 "
           id="path48" />
      </g>
    </g>
  </g>
  <g
     fill="#4caf50"
     fill-opacity="1"
     id="g54">
    <g
       transform="translate(168.641233, 336.427302)"
       id="g53">
      <g
         id="g52">
        <path
           d="M 7.75 0.78125 C 5.351562 0.78125 3.597656 -0.191406 2.484375 -2.140625 C 1.378906 -4.097656 0.828125 -7.492188 0.828125 -12.328125 C 0.828125 -17.171875 1.523438 -20.457031 2.921875 -22.1875 C 4.328125 -23.914062 6.984375 -24.78125 10.890625 -24.78125 L 13.203125 -24.78125 L 13.203125 -36.390625 C 13.203125 -36.898438 13.765625 -37.15625 14.890625 -37.15625 C 16.023438 -37.15625 16.960938 -37.082031 17.703125 -36.9375 C 18.453125 -36.800781 18.84375 -36.617188 18.875 -36.390625 L 19.6875 -20.953125 L 19.6875 0 C 19.6875 0.195312 19.671875 0.328125 19.640625 0.390625 C 19.484375 0.648438 18.890625 0.78125 17.859375 0.78125 C 16.828125 0.78125 15.945312 0.707031 15.21875 0.5625 C 14.488281 0.414062 14.125 0.226562 14.125 0 L 13.203125 -1.5 C 12.273438 -0.882812 11.617188 -0.445312 11.234375 -0.1875 C 10.160156 0.457031 9 0.78125 7.75 0.78125 Z M 10.890625 -20.125 C 9.691406 -20.125 8.875 -19.628906 8.4375 -18.640625 C 8.007812 -17.660156 7.796875 -16 7.796875 -13.65625 C 7.796875 -11.320312 7.800781 -9.785156 7.8125 -9.046875 C 7.832031 -8.304688 7.859375 -7.453125 7.890625 -6.484375 C 7.953125 -4.742188 8.175781 -3.875 8.5625 -3.875 C 9.726562 -3.875 11.273438 -4.453125 13.203125 -5.609375 L 13.203125 -20.125 Z M 10.890625 -20.125 "
           id="path51" />
      </g>
    </g>
  </g>
  <g
     fill="#4caf50"
     fill-opacity="1"
     id="g57">
    <g
       transform="translate(190.463001, 336.427302)"
       id="g56">
      <g
         id="g55">
        <path
           d="M 1.796875 -12.09375 C 1.796875 -15.613281 2.097656 -18.273438 2.703125 -20.078125 C 3.316406 -21.890625 4.285156 -23.125 5.609375 -23.78125 C 6.929688 -24.445312 8.882812 -24.78125 11.46875 -24.78125 C 14.050781 -24.78125 16.003906 -24.445312 17.328125 -23.78125 C 18.648438 -23.125 19.613281 -21.890625 20.21875 -20.078125 C 20.832031 -18.273438 21.140625 -15.613281 21.140625 -12.09375 C 21.140625 -7.257812 20.445312 -3.90625 19.0625 -2.03125 C 17.675781 -0.15625 15.144531 0.78125 11.46875 0.78125 C 7.789062 0.78125 5.257812 -0.15625 3.875 -2.03125 C 2.488281 -3.90625 1.796875 -7.257812 1.796875 -12.09375 Z M 8.375 -12.09375 C 8.375 -6.675781 8.890625 -3.96875 9.921875 -3.96875 C 11.335938 -3.96875 12.382812 -4.191406 13.0625 -4.640625 C 13.414062 -4.898438 13.660156 -5.367188 13.796875 -6.046875 C 14.046875 -7.398438 14.171875 -9.414062 14.171875 -12.09375 C 14.171875 -17.445312 13.65625 -20.125 12.625 -20.125 C 10.6875 -20.125 9.492188 -19.679688 9.046875 -18.796875 C 8.597656 -17.910156 8.375 -15.675781 8.375 -12.09375 Z M 8.375 -12.09375 "
           id="path54" />
      </g>
    </g>
  </g>
  <g
     fill="#4caf50"
     fill-opacity="1"
     id="g60">
    <g
       transform="translate(213.397628, 336.427302)"
       id="g59">
      <g
         id="g58">
        <path
           d="M 7.84375 -22.0625 C 10.488281 -23.875 12.238281 -24.78125 13.09375 -24.78125 C 13.945312 -24.78125 14.71875 -24.617188 15.40625 -24.296875 C 16.101562 -23.972656 16.613281 -23.648438 16.9375 -23.328125 L 17.375 -22.890625 C 16.882812 -20.828125 16.507812 -19.535156 16.25 -19.015625 C 16 -18.503906 15.65625 -18.25 15.21875 -18.25 C 14.78125 -18.25 14.222656 -18.425781 13.546875 -18.78125 C 12.867188 -19.132812 12.253906 -19.3125 11.703125 -19.3125 C 11.160156 -19.3125 10.066406 -18.8125 8.421875 -17.8125 L 8.421875 0 C 8.421875 0.195312 8.390625 0.328125 8.328125 0.390625 C 8.191406 0.648438 7.59375 0.78125 6.53125 0.78125 C 5.46875 0.78125 4.472656 0.695312 3.546875 0.53125 C 2.628906 0.375 2.171875 0.195312 2.171875 0 L 2.171875 -24 C 2.171875 -24.519531 2.894531 -24.78125 4.34375 -24.78125 C 5.800781 -24.78125 6.644531 -24.519531 6.875 -24 L 6.875 -23.90625 Z M 7.84375 -22.0625 "
           id="path57" />
      </g>
    </g>
  </g>
  <g
     fill="#4caf50"
     fill-opacity="1"
     id="g63">
    <g
       transform="translate(231.203408, 336.427302)"
       id="g62">
      <g
         id="g61">
        <path
           d="M 13.265625 -1.5 C 11.585938 0.0195312 10.09375 0.78125 8.78125 0.78125 C 7.476562 0.78125 6.421875 0.6875 5.609375 0.5 C 4.804688 0.320312 4.082031 -0.0625 3.4375 -0.65625 C 2.789062 -1.25 2.335938 -2.109375 2.078125 -3.234375 C 1.816406 -4.367188 1.6875 -5.875 1.6875 -7.75 C 1.6875 -10.351562 2.960938 -12.140625 5.515625 -13.109375 L 12.4375 -14.90625 C 12.40625 -17 12.195312 -18.351562 11.8125 -18.96875 C 11.425781 -19.582031 10.585938 -19.890625 9.296875 -19.890625 C 8.003906 -19.890625 6.890625 -19.679688 5.953125 -19.265625 L 4.265625 -18.578125 L 4.203125 -18.578125 C 3.921875 -18.421875 3.664062 -18.550781 3.4375 -18.96875 C 2.851562 -20.195312 2.5625 -21.15625 2.5625 -21.84375 C 2.5625 -22.539062 2.617188 -22.925781 2.734375 -23 C 2.847656 -23.082031 2.90625 -23.140625 2.90625 -23.171875 C 4.519531 -24.242188 6.609375 -24.78125 9.171875 -24.78125 C 11.734375 -24.78125 13.707031 -24.441406 15.09375 -23.765625 C 16.476562 -23.085938 17.484375 -21.851562 18.109375 -20.0625 C 18.742188 -18.269531 19.0625 -15.613281 19.0625 -12.09375 L 18.96875 0 C 18.96875 0.195312 18.9375 0.328125 18.875 0.390625 C 18.738281 0.648438 18.125 0.78125 17.03125 0.78125 C 15.03125 0.78125 14.03125 0.519531 14.03125 0 Z M 7.0625 -7.640625 C 7.0625 -5.316406 7.738281 -4.09375 9.09375 -3.96875 C 10.03125 -3.96875 10.707031 -4.128906 11.125 -4.453125 C 12.03125 -5.066406 12.484375 -7.359375 12.484375 -11.328125 C 10.804688 -11.097656 9.484375 -10.632812 8.515625 -9.9375 C 7.546875 -9.25 7.0625 -8.484375 7.0625 -7.640625 Z M 7.0625 -7.640625 "
           id="path60" />
      </g>
    </g>
  </g>
  <g
     fill="#4caf50"
     fill-opacity="1"
     id="g66">
    <g
       transform="translate(252.251007, 336.427302)"
       id="g65">
      <g
         id="g64" />
    </g>
  </g>
  <g
     fill="#4caf50"
     fill-opacity="1"
     id="g69">
    <g
       transform="translate(265.121489, 336.427302)"
       id="g68">
      <g
         id="g67">
        <path
           d="M 12.78125 -37.15625 C 16.289062 -37.15625 18.945312 -36.65625 20.75 -35.65625 C 22.5625 -34.65625 23.867188 -32.84375 24.671875 -30.21875 C 25.484375 -27.59375 25.890625 -23.695312 25.890625 -18.53125 C 25.890625 -11.375 24.953125 -6.363281 23.078125 -3.5 C 21.210938 -0.644531 17.78125 0.78125 12.78125 0.78125 C 11.550781 0.78125 8.015625 0.519531 2.171875 0 L 2.171875 -36.34375 C 7.078125 -36.882812 10.613281 -37.15625 12.78125 -37.15625 Z M 15.34375 -31.40625 C 12.53125 -31.40625 10.769531 -31.347656 10.0625 -31.234375 C 9.351562 -31.117188 9 -30.804688 9 -30.296875 L 9 -6 C 9 -5.644531 9.21875 -5.4375 9.65625 -5.375 C 10.09375 -5.3125 10.976562 -5.28125 12.3125 -5.28125 C 13.65625 -5.28125 14.597656 -5.347656 15.140625 -5.484375 C 15.691406 -5.628906 16.203125 -5.890625 16.671875 -6.265625 C 17.140625 -6.640625 17.453125 -7.359375 17.609375 -8.421875 C 17.929688 -10.484375 18.09375 -13.675781 18.09375 -18 C 18.09375 -26.9375 17.175781 -31.40625 15.34375 -31.40625 Z M 15.34375 -31.40625 "
           id="path66" />
      </g>
    </g>
  </g>
  <g
     fill="#4caf50"
     fill-opacity="1"
     id="g72">
    <g
       transform="translate(292.749481, 336.427302)"
       id="g71">
      <g
         id="g70">
        <path
           d="M 10.984375 0.78125 C 7.535156 0.78125 5.140625 -0.15625 3.796875 -2.03125 C 2.460938 -3.90625 1.796875 -7.257812 1.796875 -12.09375 C 1.796875 -15.582031 2.097656 -18.238281 2.703125 -20.0625 C 3.316406 -21.882812 4.242188 -23.125 5.484375 -23.78125 C 6.734375 -24.445312 8.566406 -24.78125 10.984375 -24.78125 C 13.398438 -24.78125 15.226562 -24.441406 16.46875 -23.765625 C 17.71875 -23.085938 18.628906 -21.828125 19.203125 -19.984375 C 19.785156 -18.148438 20.078125 -15.535156 20.078125 -12.140625 C 20.078125 -11.953125 20.078125 -11.757812 20.078125 -11.5625 C 20.078125 -11.375 19.695312 -11.195312 18.9375 -11.03125 C 18.1875 -10.875 17.273438 -10.796875 16.203125 -10.796875 L 8.765625 -10.796875 C 8.828125 -7.015625 9.097656 -4.867188 9.578125 -4.359375 C 9.867188 -4.097656 10.335938 -3.96875 10.984375 -3.96875 C 15.210938 -3.96875 18.097656 -4.175781 19.640625 -4.59375 C 19.710938 -4.625 19.765625 -4.640625 19.796875 -4.640625 C 20.015625 -4.710938 20.195312 -4.585938 20.34375 -4.265625 C 20.488281 -3.941406 20.5625 -3.179688 20.5625 -1.984375 C 20.5625 -0.785156 20.304688 -0.125 19.796875 0 C 18.472656 0.519531 15.535156 0.78125 10.984375 0.78125 Z M 8.765625 -18.4375 L 8.765625 -14.65625 L 13.640625 -14.65625 C 13.515625 -18.40625 13.144531 -20.28125 12.53125 -20.28125 C 11.4375 -20.28125 10.535156 -20.117188 9.828125 -19.796875 C 9.117188 -19.472656 8.765625 -19.019531 8.765625 -18.4375 Z M 8.765625 -18.4375 "
           id="path69" />
      </g>
    </g>
  </g>
  <g
     fill="#4caf50"
     fill-opacity="1"
     id="g75">
    <g
       transform="translate(314.716408, 336.427302)"
       id="g74">
      <g
         id="g73">
        <path
           d="M 1.015625 -24.140625 C 1.015625 -24.566406 1.601562 -24.78125 2.78125 -24.78125 C 3.957031 -24.78125 5.050781 -24.695312 6.0625 -24.53125 C 7.082031 -24.375 7.609375 -24.195312 7.640625 -24 L 11.953125 -5.90625 L 15.734375 -24 C 15.859375 -24.519531 16.367188 -24.78125 17.265625 -24.78125 C 18.171875 -24.78125 18.929688 -24.742188 19.546875 -24.671875 C 21.035156 -24.515625 21.742188 -24.289062 21.671875 -24 L 21.625 -23.90625 L 15.578125 0 C 15.453125 0.519531 14.832031 0.78125 13.71875 0.78125 C 12.601562 0.78125 11.425781 0.695312 10.1875 0.53125 C 8.945312 0.375 8.289062 0.195312 8.21875 0 L 1.0625 -23.90625 L 1.0625 -24 C 1.03125 -24.0625 1.015625 -24.109375 1.015625 -24.140625 Z M 1.015625 -24.140625 "
           id="path72" />
      </g>
    </g>
  </g>
</svg>
